PathFileType	4	(X/Y/Z)	C:\Users\Basilio\Documents\Thesis Gigler\squatting_fais\c3dfiles\073\SLS_front_pre1\markers_experimental.trc
DataRate	CameraRate	NumFrames	NumMarkers	Units	OrigDataRate	OrigDataStartFrame	OrigNumFrames
200.000000	200.000000	4	61	mm	200.000000	1220	1395
Frame#	Time	FHD			LBHD			RBHD			C7			T10			CLAV			LSHO			LUUPA			LMUPA			LDUPA			LLEP			LMEP			LRAD			LUL			LRFIN			RSHO			RUPA1			RMUPA			RDUPA			RLEP			RMEP			RUL			RUFIN			LASI			RASI			USACR			LSACR			RSACR			LTHI1			LTHI2			LTHI3			LTHI4			LLFC			LMFC			LTIB1			LTIB2			LTIB3			LTIB4			LLMAL			LMMAL			LHEE			LMT1			LMT2			LMT5			RTHI			RTHI2			RTHI3			RTHI4			RLFC			RMFC			RTIB1			RTIB2			RTIB3			RTIB4			RLMAL			RMMAL			RHEE			RMT1			RMT2			RMT5			RRAD			
		X1	Y1	Z1	X2	Y2	Z2	X3	Y3	Z3	X4	Y4	Z4	X5	Y5	Z5	X6	Y6	Z6	X7	Y7	Z7	X8	Y8	Z8	X9	Y9	Z9	X10	Y10	Z10	X11	Y11	Z11	X12	Y12	Z12	X13	Y13	Z13	X14	Y14	Z14	X15	Y15	Z15	X16	Y16	Z16	X17	Y17	Z17	X18	Y18	Z18	X19	Y19	Z19	X20	Y20	Z20	X21	Y21	Z21	X22	Y22	Z22	X23	Y23	Z23	X24	Y24	Z24	X25	Y25	Z25	X26	Y26	Z26	X27	Y27	Z27	X28	Y28	Z28	X29	Y29	Z29	X30	Y30	Z30	X31	Y31	Z31	X32	Y32	Z32	X33	Y33	Z33	X34	Y34	Z34	X35	Y35	Z35	X36	Y36	Z36	X37	Y37	Z37	X38	Y38	Z38	X39	Y39	Z39	X40	Y40	Z40	X41	Y41	Z41	X42	Y42	Z42	X43	Y43	Z43	X44	Y44	Z44	X45	Y45	Z45	X46	Y46	Z46	X47	Y47	Z47	X48	Y48	Z48	X49	Y49	Z49	X50	Y50	Z50	X51	Y51	Z51	X52	Y52	Z52	X53	Y53	Z53	X54	Y54	Z54	X55	Y55	Z55	X56	Y56	Z56	X57	Y57	Z57	X58	Y58	Z58	X59	Y59	Z59	X60	Y60	Z60	X61	Y61	Z61	

1221	6.100000000000001	-231.5774536132813	1704.975341796875	-748.3601684570314	-365.4917602539063	1671.54443359375	-770.9851684570315	-384.4148559570314	1646.039306640625	-637.8245849609376	-417.769500732422	1542.640991210938	-705.6670532226564	-429.6959838867189	1202.429931640625	-733.3527832031251	-289.4137573242188	1466.4658203125	-713.3363647460939	-321.7957763671876	1507.369384765625	-862.3842773437502	-242.3553619384766	1428.256591796875	-960.706726074219	-199.5172119140626	1448.615356445313	-941.8467407226565	-180.3096313476563	1400.601440429688	-974.573181152344	-77.90186309814455	1374.409790039063	-985.718688964844	-80.40642547607423	1318.073486328125	-941.889343261719	189.0813446044922	1386.580322265625	-892.4443969726565	187.9627532958985	1386.765380859375	-967.514587402344	270.8833007812501	1393.34716796875	-889.1115722656252	-301.2742309570313	1485.677124023438	-559.1106567382814	-207.7065124511719	1365.804931640625	-477.7997436523439	-167.3014221191407	1387.829711914063	-491.9162902832032	-146.0525665283203	1334.414672851563	-475.6629943847657	-56.01070022583009	1312.330444335938	-480.0137329101564	-65.97177886962892	1263.525268554688	-546.1718139648439	206.5486145019532	1332.765869140625	-525.6709594726564	288.1642761230469	1342.22705078125	-605.7983398437501	-252.9489440917969	1070.265991210938	-883.187683105469	-241.2317962646485	1036.059448242188	-631.5346679687501	-435.0203552246095	1101.809326171875	-741.5693359375001	-446.953094482422	1075.398559570313	-772.2405395507815	-447.908172607422	1067.549194335938	-717.0040893554689	-294.5395202636719	743.4957885742189	-950.9634399414065	-260.4889221191407	666.8226318359376	-936.6854248046877	-219.5189514160157	670.3626708984376	-909.0899658203127	-289.8966674804688	615.4986572265626	-932.0024414062502	-293.6592407226563	553.9681396484376	-934.3941040039065	-294.8534545898438	544.1525268554689	-796.8199462890627	-258.6328125000001	351.6610717773438	-890.7678222656252	-319.7720336914063	316.8128967285157	-943.0415649414065	-279.0956115722657	306.7641906738282	-923.4910888671877	-284.1837463378907	227.5352172851563	-892.3062133789065	-355.0420227050782	116.6809997558594	-919.157897949219	-342.4302368164063	137.0523376464844	-834.5344848632815	-416.8180236816407	92.83777618408205	-878.3110351562502	-198.0723266601563	55.29125595092775	-836.704040527344	-195.5425567626954	56.08569717407228	-875.4622192382815	-232.9036254882813	39.20537567138673	-930.434509277344	-351.4970092773438	804.426208496094	-582.3173217773439	-320.4878845214844	745.8967895507814	-582.5794677734376	-286.8370361328126	745.5178222656251	-584.7401123046876	-352.6400146484376	672.8544311523439	-611.0824584960939	-346.5710449218751	522.7919921875001	-636.7491455078126	-322.4570007324219	518.1140747070314	-764.6718139648439	-294.7636108398438	364.0167846679688	-725.5854492187501	-333.4179382324219	278.9818725585938	-671.3560180664064	-300.9988098144532	279.0982971191407	-706.7254028320314	-313.9356384277344	237.1327667236329	-745.6996459960939	-370.1447753906251	97.76502990722659	-714.1651000976564	-354.0405883789063	135.0717163085938	-794.7434082031252	-434.322723388672	85.15170288085939	-778.751647949219	-209.1886291503907	60.71844482421876	-781.269714355469	-211.5646667480469	51.92766189575197	-741.1121826171876	-257.1228637695313	30.8120517730713	-696.9497680664064	192.4540100097657	1331.083129882813	-598.1873168945314	
1222	6.105	-231.4729156494141	1705.036865234375	-748.5079956054689	-365.5317687988282	1671.537719726563	-771.1655883789065	-384.4316711425782	1646.106567382813	-637.9768676757814	-417.7930603027345	1542.697998046875	-705.7720336914064	-429.7191467285157	1202.4921875	-733.3347778320314	-289.4448547363282	1466.527587890625	-713.4492187500001	-321.8227844238282	1507.383666992188	-862.4812011718752	-242.3750915527344	1428.294677734375	-960.7932739257815	-199.5942382812501	1448.615600585938	-941.9438476562502	-180.3328094482422	1400.576293945313	-974.6760253906252	-77.91601562500001	1374.396118164063	-985.804626464844	-80.46907806396486	1318.10888671875	-941.9777832031252	189.0229949951172	1386.604370117188	-892.4704589843752	187.8895721435547	1386.8291015625	-967.5541992187502	270.7825317382813	1393.42822265625	-889.1257934570315	-301.2221679687501	1485.759521484375	-559.2464599609376	-207.6827697753907	1365.937622070313	-477.8696899414064	-167.3349609375	1387.920776367188	-492.0280761718751	-146.0759735107422	1334.492919921875	-475.6946105957032	-56.03488159179689	1312.378540039063	-480.1354064941407	-65.9606399536133	1263.63525390625	-546.2329711914064	206.5312500000001	1332.750244140625	-525.7238159179689	288.1541137695313	1342.171142578125	-605.9209594726564	-253.0138092041016	1070.52490234375	-883.407897949219	-241.1148681640626	1036.10693359375	-631.7572631835939	-434.9606018066407	1101.875244140625	-741.4968261718751	-446.7127990722657	1075.431518554688	-772.2593383789065	-447.7056274414064	1067.532348632813	-716.9760742187501	-294.9546203613282	743.6231079101564	-951.1918945312502	-261.1444702148438	666.9590454101564	-936.9975585937502	-220.0891113281251	670.3821411132814	-909.4297485351565	-290.3537902832032	615.6614379882814	-932.2500610351565	-294.3491516113282	554.0804443359376	-934.6597900390627	-295.2302856445313	544.2387084960939	-797.0692138671877	-259.0941772460938	351.7529602050782	-890.9787597656252	-320.7584228515626	317.0183410644532	-943.4424438476565	-279.4993286132813	306.8189697265626	-923.7564086914065	-284.3957214355469	227.6822052001954	-892.6114501953127	-355.0805053710938	116.6064758300782	-919.2852172851565	-342.4126586914063	137.1053619384766	-834.7022094726565	-416.7995605468751	92.82450103759767	-878.4057617187502	-198.099838256836	55.33292770385744	-836.8452148437502	-195.5179595947266	56.08063888549806	-875.5256958007815	-232.8784332275391	39.09858703613282	-930.5164794921877	-351.2576599121094	804.4256591796877	-582.3619384765626	-320.2078857421876	745.9049682617189	-582.7273559570314	-286.5526733398438	745.5054321289064	-584.9544677734376	-352.3594665527344	672.8502807617189	-611.1516723632814	-346.3623352050782	522.7973632812501	-636.8097534179689	-322.4862060546876	518.1880493164064	-764.8765258789064	-294.7341308593751	364.0395202636719	-725.7219238281251	-333.3442687988282	278.9843444824219	-671.4325561523439	-300.9597778320313	279.1242675781251	-706.8264770507814	-313.8929748535157	237.1444091796876	-745.7946166992189	-370.1540527343751	97.73638916015628	-714.1644287109376	-353.9942932128907	135.0902404785157	-794.823669433594	-434.3024291992189	85.14731597900392	-778.761413574219	-209.2089996337891	60.72175216674806	-781.284851074219	-211.5633697509766	51.93608856201173	-741.1419067382814	-257.1233215332032	30.83943748474122	-696.9226074218751	192.4608459472657	1331.069946289063	-598.2841796875001	
1223	6.11	-228.6509399414063	1705.434692382813	-748.9845581054689	-365.5807189941407	1671.550048828125	-771.330505371094	-384.4964294433595	1646.1572265625	-638.1096801757814	-417.8028869628907	1542.769897460938	-705.8123168945314	-429.7058105468751	1202.546630859375	-733.3499755859376	-289.4470520019532	1466.614379882813	-713.5928344726564	-321.8541259765626	1507.399169921875	-862.5887451171877	-242.4543762207032	1428.328247070313	-960.9013671875002	-199.6617584228516	1448.608764648438	-942.0561523437502	-180.4702301025391	1400.579345703125	-974.774353027344	-77.95959472656251	1374.404907226563	-985.8862304687502	-80.57774353027345	1318.142822265625	-942.042907714844	188.9356842041016	1386.692504882813	-892.534118652344	187.8739776611328	1386.891723632813	-967.559509277344	270.7056884765626	1393.501708984375	-889.1170654296877	-301.1988525390626	1485.859619140625	-559.2463378906251	-207.6776428222657	1366.074462890625	-477.9507446289064	-167.2720642089844	1388.043334960938	-492.1085205078126	-146.0989074707032	1334.577880859375	-475.7913818359376	-56.01632308959962	1312.438598632813	-480.1792602539064	-65.9666213989258	1263.691162109375	-546.2687988281251	206.5538330078126	1332.709106445313	-525.8274536132814	288.1287841796876	1342.090454101563	-606.1008911132814	-253.0057525634766	1070.790893554688	-883.6269531250002	-240.9534454345704	1036.153564453125	-631.9482421875001	-434.9502258300782	1101.958618164063	-741.4791259765626	-446.7257080078126	1075.524658203125	-772.1525878906252	-447.6437988281251	1067.587646484375	-716.9263305664064	-295.2196960449219	743.6826782226564	-951.2983398437502	-261.4764404296876	667.0817871093751	-937.174499511719	-220.5018463134766	670.4038696289064	-909.7182617187502	-290.7508850097657	615.7800292968751	-932.5419921875002	-294.9192199707032	554.2103881835939	-934.8636474609377	-295.6068725585938	544.3282470703126	-797.3191528320315	-259.3484191894532	351.9999694824219	-891.3870239257815	-320.4953308105469	316.9693908691407	-943.7165527343752	-279.6953125000001	306.9520874023438	-923.9005126953127	-284.6289672851563	227.7878875732422	-892.8140258789065	-355.0625305175782	116.5726623535157	-919.4561767578127	-342.4147033691407	137.1515502929688	-834.8828735351565	-416.8274230957032	92.83306884765626	-878.486267089844	-198.1128845214844	55.38059616088869	-836.9373168945315	-195.5377197265626	56.0234718322754	-875.672546386719	-232.9150848388672	39.02852249145509	-930.5988769531252	-351.0496826171876	804.4099121093752	-582.4699707031251	-319.9895629882813	745.8729858398439	-582.8058471679689	-286.3110656738282	745.5643310546876	-585.1212768554689	-352.1661071777344	672.8525390625001	-611.2752685546876	-346.2432250976563	522.8474121093751	-636.8787841796876	-322.6536865234376	518.2172851562501	-765.0503540039064	-294.6967163085938	364.0483093261719	-725.8365478515626	-333.2451477050782	279.0169677734376	-671.4971313476564	-300.9349060058594	279.1265563964844	-706.9542846679689	-313.9296569824219	237.1172790527344	-745.9140625000001	-370.0980834960938	97.76599121093753	-714.1509399414064	-353.9752197265626	135.0671539306641	-794.8394775390627	-434.3233642578126	85.14369964599611	-778.7875976562502	-209.1991882324219	60.72897720336915	-781.3374633789065	-211.571762084961	51.93999481201173	-741.1452636718751	-257.0793762207032	30.8407382965088	-696.9815063476564	192.4733581542969	1331.05908203125	-598.3941040039064	
1224	6.115	-228.7302246093751	1705.4814453125	-749.2539672851564	-365.5820312500001	1671.513061523438	-771.4883422851565	-384.4262084960939	1646.25146484375	-638.3898925781251	-417.7747802734376	1542.806030273438	-705.9456176757814	-429.7245178222657	1202.602172851563	-733.3152465820314	-289.4734191894532	1466.694213867188	-713.6621704101564	-321.9299011230469	1507.4267578125	-862.7094726562502	-242.5312957763672	1428.332275390625	-960.9873046875002	-199.7412414550782	1448.616821289063	-942.1154785156252	-180.5615386962891	1400.539306640625	-974.855163574219	-78.0245819091797	1374.372436523438	-985.9509277343752	-80.5812225341797	1318.106689453125	-942.1160888671877	188.8467254638672	1386.779174804688	-892.5863037109377	187.7638854980469	1386.930297851563	-967.602966308594	270.6157226562501	1393.588989257813	-889.1221313476565	-301.1818847656251	1485.878540039063	-559.5020141601564	-207.6315155029297	1366.204223632813	-478.0264587402345	-167.2365875244141	1388.14013671875	-492.1856079101564	-146.0960235595703	1334.667846679688	-475.8301696777345	-55.99685668945314	1312.511596679688	-480.2478027343751	-65.9924774169922	1263.737670898438	-546.3651123046876	206.7347717285157	1332.748901367188	-526.0182495117189	288.1831359863282	1341.92041015625	-606.1845703125001	-253.1566009521485	1071.027587890625	-883.8974609375002	-240.807357788086	1036.219848632813	-632.2183837890626	-434.8506164550782	1101.9931640625	-741.3883056640626	-446.6987609863282	1075.61962890625	-772.1243896484377	-447.5644836425782	1067.659423828125	-716.8437500000001	-295.5707702636719	743.7493896484376	-951.6815185546877	-261.9031677246094	667.1781616210939	-937.4160156250002	-220.8541412353516	670.4497070312501	-910.0179443359377	-291.1318664550782	615.9048461914064	-932.7463989257815	-295.4439697265626	554.3140258789064	-935.0690917968752	-295.9784240722657	544.4144897460939	-797.5673828125002	-259.8130493164063	352.1231689453126	-891.6484375000002	-320.5009155273438	316.8883972167969	-943.863952636719	-279.9449157714844	307.0446166992188	-924.1031494140627	-284.7224121093751	227.9228973388672	-892.9403076171877	-355.0746459960938	116.448844909668	-919.5767822265627	-342.4858398437501	137.200912475586	-835.0645751953127	-416.8080444335939	92.80493927001955	-878.5877685546877	-198.1302947998047	55.38843917846681	-837.035827636719	-195.5589599609376	55.99853134155275	-875.803405761719	-232.8754425048829	38.94130325317384	-930.7023925781252	-350.8267517089844	804.421813964844	-582.5216064453126	-319.8028259277344	745.8491210937501	-582.9008178710939	-286.0814208984376	745.5335693359376	-585.3104248046876	-351.9703979492188	672.8375854492189	-611.3276977539064	-346.1137084960938	522.8571166992189	-637.0068359375001	-322.7927856445313	518.2206420898439	-765.1896362304689	-294.7358703613282	364.0257873535157	-725.9959716796876	-333.2250976562501	279.0029907226563	-671.5583496093751	-300.9156494140626	279.1304931640626	-707.0291137695314	-313.9472961425782	237.1673736572266	-745.9486694335939	-370.1197509765626	97.78163909912112	-714.1448364257814	-354.0202331542969	135.0734405517578	-794.877136230469	-434.3499145507814	85.1073684692383	-778.7683715820315	-209.1931762695313	60.74055099487306	-781.3093261718752	-211.5716552734376	51.95674514770509	-741.1446533203126	-257.0936584472657	30.84501457214356	-696.9722900390626	192.4971160888672	1331.046508789063	-598.5072021484376	
